<svg viewBox="0 0 50 50" xmlns="http://www.w3.org/2000/svg"><g fill="#4ac7e9"><path d="m39.2 9.32h-28.4a1.48 1.48 0 0 0 -1.48 1.48v4.46a1.48 1.48 0 0 0 1.48 1.48h28.4a1.48 1.48 0 0 0 1.48-1.48v-4.46a1.48 1.48 0 0 0 -1.48-1.48zm.48 5.94a.48.48 0 0 1 -.48.48h-28.4a.48.48 0 0 1 -.48-.48v-4.46a.49.49 0 0 1 .48-.48h28.4a.49.49 0 0 1 .48.48z"/><path d="m28.34 21h-15.34a.5.5 0 0 0 -.5.5.5.5 0 0 0 .5.5h15.34a.5.5 0 0 0 .5-.5.5.5 0 0 0 -.5-.5z"/><path d="m37 20a1.5 1.5 0 1 0 1.5 1.5 1.5 1.5 0 0 0 -1.5-1.5zm0 2a.5.5 0 0 1 -.5-.5.5.5 0 0 1 .5-.5.51.51 0 0 1 .5.5.5.5 0 0 1 -.5.5z"/><path d="m32.55 20a1.5 1.5 0 1 0 1.5 1.5 1.5 1.5 0 0 0 -1.5-1.5zm0 2a.5.5 0 0 1 -.5-.5.5.5 0 0 1 1 0 .5.5 0 0 1 -.5.5z"/><path d="m39.2 17.74h-28.4a1.48 1.48 0 0 0 -1.48 1.48v4.46a1.48 1.48 0 0 0 1.48 1.48h28.4a1.48 1.48 0 0 0 1.48-1.48v-4.46a1.48 1.48 0 0 0 -1.48-1.48zm.48 5.94a.48.48 0 0 1 -.48.48h-28.4a.48.48 0 0 1 -.48-.48v-4.46a.49.49 0 0 1 .48-.48h28.4a.49.49 0 0 1 .48.48z"/><path d="m28.34 29.37h-15.34a.5.5 0 0 0 -.5.5.5.5 0 0 0 .5.5h15.34a.5.5 0 0 0 .5-.5.5.5 0 0 0 -.5-.5z"/><path d="m37 28.37a1.5 1.5 0 1 0 1.5 1.5 1.5 1.5 0 0 0 -1.5-1.5zm0 2a.5.5 0 0 1 -.5-.5.5.5 0 0 1 .5-.5.51.51 0 0 1 .5.5.5.5 0 0 1 -.5.5z"/><path d="m32.55 28.37a1.5 1.5 0 1 0 1.5 1.5 1.5 1.5 0 0 0 -1.5-1.5zm0 2a.5.5 0 0 1 -.5-.5.5.5 0 0 1 1 0 .5.5 0 0 1 -.5.5z"/><path d="m39.2 26.16h-28.4a1.48 1.48 0 0 0 -1.48 1.48v4.47a1.47 1.47 0 0 0 1.48 1.47h28.4a1.47 1.47 0 0 0 1.48-1.47v-4.47a1.48 1.48 0 0 0 -1.48-1.48zm.48 5.95a.48.48 0 0 1 -.48.47h-28.4a.48.48 0 0 1 -.48-.47v-4.47a.49.49 0 0 1 .48-.48h28.4a.49.49 0 0 1 .48.48z"/><path d="m40.18 38a.5.5 0 0 0 0-1h-11.33a.49.49 0 0 0 -.49-.42h-1.31v-1.5a.51.51 0 0 0 -.5-.5.5.5 0 0 0 -.5.5v2a.5.5 0 0 0 .5.5h1.31v2.09h-5.72v-2.08h2.4a.5.5 0 0 0 .5-.5.5.5 0 0 0 -.5-.5h-.54v-1.51a.5.5 0 0 0 -.5-.5.51.51 0 0 0 -.5.5v1.51h-1.36a.49.49 0 0 0 -.49.42h-11.33a.5.5 0 0 0 0 1h11.32v1h-11.32a.5.5 0 0 0 -.5.5.5.5 0 0 0 .5.5h11.32v.17a.5.5 0 0 0 .5.5h6.72a.5.5 0 0 0 .5-.5v-.18h11.32a.5.5 0 0 0 .5-.5.5.5 0 0 0 -.5-.5h-11.32v-1z"/><path d="m28.34 12.53h-15.34a.5.5 0 0 0 0 1h15.34a.5.5 0 0 0 0-1z"/><path d="m37 11.53a1.5 1.5 0 1 0 1.5 1.5 1.5 1.5 0 0 0 -1.5-1.5zm0 2a.5.5 0 0 1 -.5-.5.5.5 0 0 1 .5-.5.51.51 0 0 1 .5.5.5.5 0 0 1 -.5.5z"/><path d="m32.55 11.53a1.5 1.5 0 1 0 1.5 1.5 1.5 1.5 0 0 0 -1.5-1.5zm0 2a.5.5 0 0 1 -.5-.5.5.5 0 0 1 1 0 .5.5 0 0 1 -.5.5z"/></g></svg>