<svg viewBox="0 0 50 50" xmlns="http://www.w3.org/2000/svg"><g fill="#883ea8"><path d="m32.47 24.71a.58.58 0 0 0 .58-.58v-2.19a.58.58 0 0 0 -1.16 0v2.19a.58.58 0 0 0 .58.58z"/><path d="m37 26.47a.58.58 0 1 0 0 1.16h1.59a.58.58 0 0 0 .58-.58v-15.7a.58.58 0 0 0 -.58-.59h-22a.58.58 0 0 0 -.58.59v15.7a.58.58 0 0 0 .58.58h11.41a.58.58 0 0 0 0-1.16h-10.81v-14.54h20.81v14.54z"/><path d="m41.78 7.64h-33.56a.58.58 0 0 0 -.58.58v22a.58.58 0 0 0 .58.58h1.86v1a2.19 2.19 0 0 0 2.19 2.2h11.12a1 1 0 0 1 0 2.06h-11.19a2.13 2.13 0 0 0 -2.12 2.19h-.17a1.34 1.34 0 0 0 -1.34 1.34v2.22a.58.58 0 0 0 .58.58h3a.58.58 0 0 0 .58-.58v-2.25a1.34 1.34 0 0 0 -1.34-1.34h-.13a1 1 0 0 1 1-1h11.13a2.19 2.19 0 0 0 0-4.38h-11.12a1 1 0 0 1 -1-1v-1h16.73a.58.58 0 0 0 0-1.16h-19.2v-20.88h32.4v20.79h-4.2a.58.58 0 1 0 0 1.16h4.81a.58.58 0 0 0 .58-.58v-22a.58.58 0 0 0 -.61-.53zm-30.41 31.74a.18.18 0 0 1 .17.18v1.64h-1.81v-1.64a.19.19 0 0 1 .18-.18z"/><path d="m34.66 18.68-.66-1.68a.58.58 0 0 0 -.54-.36h-.39v-1a.58.58 0 1 0 -1.16 0v1h-.4a.58.58 0 0 0 -.51.36l-.74 1.86a1 1 0 0 0 -.42.81v20.07a.58.58 0 0 0 .3.51v1.53a.58.58 0 0 0 .58.58h3.59a.58.58 0 0 0 .58-.58v-1.53a.59.59 0 0 0 .31-.51v-20.49a.58.58 0 0 0 -.54-.57zm-2.78-.89h1.17l.35.88h-1.87zm1.8 23.41h-2.43v-.88h2.43zm.3-2h-2.98v-19.37h3z"/><path d="m10.72 24a.58.58 0 0 0 -.58.58v2.46a.58.58 0 0 0 .58.58h3.28a.58.58 0 0 0 .58-.58v-2.45a.58.58 0 0 0 -.58-.59zm2.64 2.46h-2.06v-1.3h2.06z"/><path d="m14.53 11.35a.58.58 0 0 0 -.58-.59h-3.23a.58.58 0 0 0 -.58.59v2.45a.58.58 0 0 0 .58.59h3.28a.58.58 0 0 0 .58-.59zm-1.17 1.87h-2.06v-1.29h2.06z"/><path d="m14.53 18a2.05 2.05 0 0 0 -2.06-2h-.28a2.05 2.05 0 0 0 -2 2.05v2.37a2.05 2.05 0 0 0 2 2.05h.28a2.05 2.05 0 0 0 2.06-2.05zm-1.17 2.37a.89.89 0 0 1 -.89.89h-.28a.89.89 0 0 1 -.89-.89v-2.37a.89.89 0 0 1 .89-.89h.28a.89.89 0 0 1 .89.89z"/></g></svg>