<svg viewBox="0 0 50 50" xmlns="http://www.w3.org/2000/svg"><g fill="#fbae17"><path d="m25.24 30.28a6.49 6.49 0 1 0 -4.58-1.9 6.4 6.4 0 0 0 4.58 1.9zm0-12.15a5.68 5.68 0 1 1 -5.68 5.67 5.68 5.68 0 0 1 5.68-5.67z"/><path d="m23.53 27.11a1 1 0 0 0 .46.11 1 1 0 0 0 .54-.17l3.62-2.44a1 1 0 0 0 0-1.61l-3.62-2.45a1 1 0 0 0 -.54-.16.92.92 0 0 0 -.46.11 1 1 0 0 0 -.51.85v4.9a1 1 0 0 0 .51.86zm.29-5.76a.15.15 0 0 1 .09-.14.11.11 0 0 1 .08 0 .16.16 0 0 1 .09 0l3.62 2.45a.15.15 0 0 1 .07.13.15.15 0 0 1 -.07.14l-3.62 2.45a.16.16 0 0 1 -.09 0h-.08a.16.16 0 0 1 -.09-.15z"/><path d="m26.83 19.58a4.52 4.52 0 0 1 2.6 2.56.4.4 0 0 0 .37.25.33.33 0 0 0 .15 0 .38.38 0 0 0 .22-.21.42.42 0 0 0 0-.31 5.33 5.33 0 0 0 -3.06-3 .4.4 0 0 0 -.15 0 .41.41 0 0 0 -.37.26.37.37 0 0 0 0 .31.38.38 0 0 0 .24.14z"/><path d="m25.24 19.29a4.87 4.87 0 0 1 .76.06h.07a.4.4 0 0 0 .39-.33.35.35 0 0 0 -.07-.3.39.39 0 0 0 -.26-.17 5.26 5.26 0 0 0 -.89-.07.4.4 0 1 0 0 .8z"/><path d="m32.39 7.55h-14.78a2.42 2.42 0 0 0 -2.42 2.45v30a2.42 2.42 0 0 0 2.42 2.42h14.78a2.42 2.42 0 0 0 2.42-2.42v-30a2.42 2.42 0 0 0 -2.42-2.45zm-16.39 2.45a1.57 1.57 0 0 1 1.61-1.6h14.78a1.57 1.57 0 0 1 1.61 1.6v1.11h-18zm18 30a1.57 1.57 0 0 1 -1.58 1.57h-14.81a1.57 1.57 0 0 1 -1.61-1.57v-4.6h18zm0-5.47h-18v-22.61h18z"/><path d="m25 40.68a2.18 2.18 0 1 0 -2.18-2.18 2.18 2.18 0 0 0 2.18 2.18zm0-3.52a1.34 1.34 0 1 1 -1.34 1.34 1.34 1.34 0 0 1 1.34-1.34z"/></g></svg>