<svg viewBox="0 0 50 50" xmlns="http://www.w3.org/2000/svg"><g fill="#45DE3E"><path d="m41.1 8.34h-32.2a.52.52 0 0 0 -.56.56v6.1a.52.52 0 0 0 .56.55h32.2a.52.52 0 0 0 .56-.55v-6.1a.52.52 0 0 0 -.56-.56zm-.55 6.11h-31.1v-5h31.1z"/><path d="m11.12 10.56h3.33v1.11h-3.33z"/><path d="m11.12 12.23h3.33v1.11h-3.33z"/><path d="m8.9 30h18.32a.53.53 0 0 0 .56-.56v-11.11a.53.53 0 0 0 -.56-.55h-18.32a.52.52 0 0 0 -.56.55v11.11a.52.52 0 0 0 .56.56zm1.83-1.11 7.6-4.89 7.17 4.89zm15.93-.5-3.94-2.72 3.94-2zm-17.21-9.5h17.21v3.56l-5 2.5-3.06-2.12a.6.6 0 0 0 -.61 0l-8.54 5.56z"/><path d="m13.06 20a1.95 1.95 0 1 0 1.94 2 2 2 0 0 0 -1.94-2zm0 2.78a.84.84 0 1 1 .83-.83.85.85 0 0 1 -.83.83z"/><path d="m29.44 17.78h8.33v1.11h-8.33z"/><path d="m29.44 20.56h12.22v1.11h-12.22z"/><path d="m29.44 23.34h12.22v1.11h-12.22z"/><path d="m29.44 26.11h12.22v1.11h-12.22z"/><path d="m29.44 28.89h12.22v1.11h-12.22z"/><path d="m21.11 32.22h-12.21a.52.52 0 0 0 -.56.55v8.33a.52.52 0 0 0 .56.56h12.21a.52.52 0 0 0 .56-.56v-8.33a.52.52 0 0 0 -.56-.55zm-.55 8.33h-11.11v-7.22h11.11z"/><path d="m41.1 32.22h-17.21a.52.52 0 0 0 -.55.55v8.33a.52.52 0 0 0 .55.56h17.21a.52.52 0 0 0 .56-.56v-8.33a.52.52 0 0 0 -.56-.55zm-11.66 8.33h-5v-7.22h5zm5.55 0h-4.44v-7.22h4.45zm5.56 0h-4.44v-7.22h4.44z"/><path d="m13.89 36.11h2.22v1.11h-2.22z"/><path d="m17.23 36.11h2.22v1.11h-2.22z"/><path d="m10.56 36.11h2.22v1.11h-2.22z"/></g></svg>