<svg viewBox="0 0 50 50" xmlns="http://www.w3.org/2000/svg"><g fill="#ef7d17"><path d="m15.58 35.83a3.3 3.3 0 1 0 -3.3-3.29 3.3 3.3 0 0 0 3.3 3.29zm0-5.5a2.21 2.21 0 1 1 -2.21 2.21 2.21 2.21 0 0 1 2.21-2.21z"/><path d="m15.43 36a4.06 4.06 0 0 0 -4.06 4v2a.54.54 0 0 0 .54.54h7a.55.55 0 0 0 .55-.53v-1.93a4.07 4.07 0 0 0 -4.03-4.08zm2.95 5.44h-5.92v-1.44a3 3 0 0 1 5.95 0z"/><path d="m34.42 29.24a3.3 3.3 0 1 0 3.3 3.3 3.3 3.3 0 0 0 -3.3-3.3zm0 5.51a2.21 2.21 0 1 1 2.21-2.21 2.21 2.21 0 0 1 -2.21 2.21z"/><path d="m34.57 36a4.07 4.07 0 0 0 -4.07 4v1.93a.55.55 0 0 0 .55.53h7a.54.54 0 0 0 .54-.54v-1.92a4.06 4.06 0 0 0 -4.02-4zm3 5.44h-5.95v-1.38a3 3 0 0 1 5.95 0z"/><path d="m21.81 32.54a3.3 3.3 0 1 0 3.29-3.3 3.3 3.3 0 0 0 -3.29 3.3zm5.5 0a2.21 2.21 0 1 1 -2.21-2.21 2.21 2.21 0 0 1 2.21 2.21z"/><path d="m25 36a4.06 4.06 0 0 0 -4.1 4v2a.54.54 0 0 0 .54.54h7a.55.55 0 0 0 .56-.54v-2a4.06 4.06 0 0 0 -4-4zm2.95 5.44h-5.95v-1.44a3 3 0 0 1 5.95 0z"/><path d="m27.92 12.85a4.05 4.05 0 0 1 .12.5.54.54 0 0 0 .54.45h.08a.55.55 0 0 0 .45-.63 3.74 3.74 0 0 0 -.16-.66.54.54 0 0 0 -.69-.34.53.53 0 0 0 -.34.68z"/><path d="m25 10.76a3 3 0 0 1 2.36 1.11.55.55 0 1 0 .84-.7 4.17 4.17 0 0 0 -3.2-1.5.55.55 0 0 0 -.54.55.54.54 0 0 0 .54.54z"/><path d="m22.15 19.51a.53.53 0 0 0 0 .13v4.06a.54.54 0 0 0 .54.54h1.78v1.52h-9a.54.54 0 0 0 -.54.54v1.45a.55.55 0 0 0 .54.55.55.55 0 0 0 .55-.55v-.9h8.48v.9a.54.54 0 1 0 1.08 0v-.9h7.9v.9a.55.55 0 0 0 .55.55.55.55 0 0 0 .54-.55v-1.45a.54.54 0 0 0 -.54-.54h-8.49v-1.52h1.78a.54.54 0 0 0 .54-.54v-4.06a.53.53 0 0 0 0-.13 6.34 6.34 0 1 0 -5.7 0zm4.63 3.64h-3.56v-.94h3.56zm0-2h-3.56v-.94h3.56zm-2.69-2.15v-4h1.82v4a5.22 5.22 0 0 1 -1.82 0zm.91-10.41a5.25 5.25 0 0 1 2 10.11v-3.7h.62a.54.54 0 1 0 0-1.08h-.62v-.33a.54.54 0 1 0 -1.08 0v.33h-1.83v-.33a.54.54 0 1 0 -1.08 0v.33h-.62a.54.54 0 1 0 0 1.08h.61v3.7a5.25 5.25 0 0 1 2-10.11z"/><path d="m14 12.65h2.25a.55.55 0 0 0 .55-.54.55.55 0 0 0 -.55-.55h-2.25a.55.55 0 0 0 -.55.55.55.55 0 0 0 .55.54z"/><path d="m16.5 13.57-1.44 1.43a.55.55 0 0 0 .39.93.51.51 0 0 0 .38-.16l1.44-1.43a.55.55 0 0 0 0-.77.53.53 0 0 0 -.77 0z"/><path d="m16.48 10.65a.58.58 0 0 0 .39.15.54.54 0 0 0 .38-.15.55.55 0 0 0 0-.77l-1.43-1.44a.54.54 0 1 0 -.77.77z"/><path d="m33.78 12.11a.55.55 0 0 0 .55.54h2.25a.55.55 0 0 0 .55-.54.55.55 0 0 0 -.55-.55h-2.25a.55.55 0 0 0 -.55.55z"/><path d="m34.75 15.77a.51.51 0 0 0 .38.16.55.55 0 0 0 .39-.93l-1.44-1.43a.53.53 0 0 0 -.77 0 .55.55 0 0 0 0 .77z"/><path d="m33.71 10.8a.58.58 0 0 0 .39-.15l1.43-1.44a.54.54 0 0 0 -.77-.77l-1.43 1.44a.55.55 0 0 0 0 .77.54.54 0 0 0 .38.15z"/></g></svg>