<svg viewBox="0 0 50 50" xmlns="http://www.w3.org/2000/svg"><g fill="#4ac7e9"><path d="m20.31 21.22v2h-1.68v10.25h12.74v-10.22h-1.68v-2a4.69 4.69 0 0 0 -9.38 0zm10.08 3v8.26h-10.78v-8.25zm-5.39-6.71a3.71 3.71 0 0 1 3.71 3.71v2h-7.42v-2a3.71 3.71 0 0 1 3.71-3.71z"/><path d="m21.99 24.51h6.02v.98h-6.02z"/><path d="m38 12.62-12.85-4h-.14-.14l-12.87 4a.47.47 0 0 0 -.34.45v10.41a18.71 18.71 0 0 0 13.2 17.86h.14.14a18.71 18.71 0 0 0 13.19-17.86v-10.41a.47.47 0 0 0 -.33-.45zm-.62 10.86a17.67 17.67 0 0 1 -12.22 16.84l-.16.06-.16-.06a17.67 17.67 0 0 1 -12.21-16.84v-10l12.37-3.86 12.37 3.81z"/></g></svg>