<svg viewBox="0 0 50 50" xmlns="http://www.w3.org/2000/svg"><g fill="#883ea8"><path d="m20.4 28h-2.4v-2.46a.57.57 0 0 0 -.56-.57h-2.77a.58.58 0 0 0 -.57.57v2.46h-2.42a.56.56 0 0 0 -.57.56v2.74a.57.57 0 0 0 .57.57h2.42v2.42a.57.57 0 0 0 .57.57h2.74a.56.56 0 0 0 .56-.57v-2.45h2.43a.58.58 0 0 0 .57-.57v-2.74a.57.57 0 0 0 -.57-.53zm-.57 2.73h-2.42a.56.56 0 0 0 -.57.57v2.42h-1.6v-2.45a.56.56 0 0 0 -.57-.57h-2.42v-1.6h2.42a.56.56 0 0 0 .57-.57v-2.42h1.6v2.42a.56.56 0 0 0 .57.57h2.42z"/><path d="m26.54 28h-3.08a.57.57 0 0 0 0 1.13h3.08a.57.57 0 0 0 0-1.13z"/><path d="m34 21h-6.46v-1.7a.57.57 0 0 0 -.57-.57h-1.4v-3.64a2 2 0 0 1 2-2h14.7a.57.57 0 0 0 .57-.57.56.56 0 0 0 -.57-.57h-14.68a3.16 3.16 0 0 0 -3.16 3.15v3.64h-1.43a.57.57 0 0 0 -.57.57v1.69h-6.43a8.88 8.88 0 1 0 7.81 13.2h2.38a8.88 8.88 0 1 0 7.81-13.2zm0 16.62a7.72 7.72 0 0 1 -7-4.24.56.56 0 0 0 -.5-.32h-3.04a.56.56 0 0 0 -.5.32 7.74 7.74 0 1 1 -6.96-11.22h7a.58.58 0 0 0 .57-.57v-1.72h2.8v1.13h-1.06a.57.57 0 0 0 0 1.14h8.69a7.74 7.74 0 1 1 0 15.48z"/><path d="m34 28.39a1.71 1.71 0 1 0 -1.71-1.71 1.72 1.72 0 0 0 1.71 1.71zm0-2.28a.57.57 0 0 1 0 1.14.57.57 0 0 1 0-1.14z"/><path d="m30.74 28.19a1.71 1.71 0 1 0 1.71 1.71 1.72 1.72 0 0 0 -1.71-1.71zm0 2.28a.57.57 0 1 1 .57-.57.58.58 0 0 1 -.57.57z"/><path d="m34 31.41a1.71 1.71 0 1 0 1.71 1.71 1.72 1.72 0 0 0 -1.71-1.71zm0 2.28a.57.57 0 0 1 -.57-.57.58.58 0 0 1 .57-.57.57.57 0 0 1 .57.57.56.56 0 0 1 -.57.57z"/><path d="m37.18 28.19a1.71 1.71 0 1 0 1.71 1.71 1.72 1.72 0 0 0 -1.71-1.71zm0 2.28a.57.57 0 0 1 0-1.14.57.57 0 0 1 0 1.14z"/></g></svg>