<svg viewBox="0 0 50 50" xmlns="http://www.w3.org/2000/svg"><g fill="#fbae17"><path d="m7.8 25.39a2.4 2.4 0 1 0 2.39 2.39 2.4 2.4 0 0 0 -2.39-2.39zm0 3.81a1.42 1.42 0 1 1 1.42-1.42 1.42 1.42 0 0 1 -1.42 1.42z"/><path d="m22.52 25h-9a.45.45 0 0 0 -.49.49v8.61a.46.46 0 0 0 .49.49h9a.46.46 0 0 0 .49-.49v-8.57a.45.45 0 0 0 -.49-.53zm-.52 8.65h-8v-7.65h8z"/><path d="m46.84 25.27a1.17 1.17 0 0 0 .72-1.08v-.62a.36.36 0 0 0 -.13-.29.38.38 0 0 0 -.31-.1l-3.1.39h-1.22a1.17 1.17 0 0 0 -1.1-.78h-4.79l-1.52.38h-2.29a1.18 1.18 0 0 0 -1.18 1.17h-4.56v-1a2.4 2.4 0 0 0 -2.12-2.34v-4.9h1.27a.45.45 0 0 0 .49-.49v-2.29a.45.45 0 0 0 -.49-.49h-19.2a.46.46 0 0 0 -.49.49v2.29a.46.46 0 0 0 .49.49h15v4.9h-14l-1.57-2.1a1.2 1.2 0 0 0 -.9-.45h-1a2.4 2.4 0 0 0 -2.39 2.4v14a2.39 2.39 0 0 0 2.39 2.39h20.16a2.4 2.4 0 0 0 2.4-2.39v-1h4.56a1.18 1.18 0 0 0 1.18 1.17h2.3l1.51.38h4.75a1.17 1.17 0 0 0 1.1-.78h1.2l3.1.39a.38.38 0 0 0 .31-.1.36.36 0 0 0 .13-.29v-.72a1.17 1.17 0 0 0 -.72-1.08 1.06 1.06 0 0 1 0-2.08 1.16 1.16 0 0 0 .72-1.08v-1.23a1.16 1.16 0 0 0 -.72-1.08 1.06 1.06 0 0 1 0-2.08zm-39.04-10.15v-1.31h18.2v1.31zm16.45 1v4.84h-1v-4.86zm2.13 18.68a1.41 1.41 0 0 1 -1.38 1.39h-20.17a1.42 1.42 0 0 1 -1.42-1.41v-.15h3.33a.49.49 0 1 0 0-1h-3.33v-1.54h2.06a.49.49 0 1 0 0-1h-2.06v-10.3a1.43 1.43 0 0 1 1.42-1.42h1l1.76 2.35a.44.44 0 0 0 .39.19h17.02a1.42 1.42 0 0 1 1.42 1.42zm5.54-1.8h-1.17a.39.39 0 0 0 -.75 0h-.78a.4.4 0 0 0 -.79 0h-1v-7.87h1v.4a.4.4 0 0 0 .79 0v-.4h.78v.4a.39.39 0 0 0 .78 0v-.4h1.17zm3.13 1.18h-1.95a.39.39 0 0 1 -.39-.39v-9.44a.39.39 0 0 1 .39-.35h1.95zm1.57.28-.79-.2v-10.38l.79-.2zm5.47-.28a.4.4 0 0 1 -.39.39h-4.3v-11h4.3a.4.4 0 0 1 .39.39zm1.56-.39h-.78v-9.44h.78zm2.9-5.67a.39.39 0 0 1 .23.36v1.23a.39.39 0 0 1 -.23.36 1.93 1.93 0 0 0 -1.33 1.76 2 2 0 0 0 1.33 1.77.36.36 0 0 1 .23.35v.18l-2.34-.3v-9.52l2.34-.3v.18a.36.36 0 0 1 -.23.35 2 2 0 0 0 -1.33 1.77 1.93 1.93 0 0 0 1.33 1.76z"/><path d="m40.92 24.74h-2.35a.4.4 0 0 0 0 .79h2.35a.4.4 0 0 0 0-.79z"/><path d="m40.92 26.31h-2.35a.38.38 0 0 0 -.39.39.39.39 0 0 0 .39.39h2.35a.4.4 0 0 0 .39-.39.39.39 0 0 0 -.39-.39z"/><path d="m40.92 27.87h-2.35a.39.39 0 0 0 -.39.39.38.38 0 0 0 .39.39h2.35a.39.39 0 0 0 .39-.39.4.4 0 0 0 -.39-.39z"/><path d="m40.92 29.44h-2.35a.38.38 0 0 0 -.39.39.39.39 0 0 0 .39.39h2.35a.4.4 0 0 0 .39-.39.39.39 0 0 0 -.39-.39z"/><path d="m40.92 31h-2.35a.39.39 0 0 0 0 .78h2.35a.39.39 0 0 0 0-.78z"/><path d="m40.92 32.56h-2.35a.4.4 0 0 0 0 .79h2.35a.4.4 0 0 0 0-.79z"/><path d="m30.36 27.09a.38.38 0 0 0 -.39.39v.78a.39.39 0 1 0 .78 0v-.78a.38.38 0 0 0 -.39-.39z"/><path d="m30.36 29.83a.38.38 0 0 0 -.39.39v.78a.39.39 0 0 0 .78 0v-.78a.38.38 0 0 0 -.39-.39z"/><path d="m28.8 27.09a.39.39 0 0 0 -.4.39v.78a.4.4 0 0 0 .79 0v-.78a.39.39 0 0 0 -.39-.39z"/><path d="m28.8 29.83a.39.39 0 0 0 -.4.39v.78a.4.4 0 0 0 .79 0v-.78a.39.39 0 0 0 -.39-.39z"/></g></svg>