<svg viewBox="0 0 50 50" xmlns="http://www.w3.org/2000/svg"><g fill="#45DE3E"><path d="m42.12 24.37v-13.95a3.17 3.17 0 0 0 -3.12-3.17h-27.95a3.17 3.17 0 0 0 -3.17 3.17v9.51a1.9 1.9 0 0 0 -1.88 1.9v19a1.9 1.9 0 0 0 1.9 1.9h14a1.9 1.9 0 0 0 1.9-1.9h5.32a1.89 1.89 0 0 0 1.51-.75 1.87 1.87 0 0 0 .32-1.65l-1.25-4.57h3.61v7a1.91 1.91 0 0 0 1.91 1.9h7a1.9 1.9 0 0 0 1.9-1.9v-14.59a1.9 1.9 0 0 0 -2-1.9zm-19.66 16.48a.64.64 0 0 1 -.63.64h-13.95a.64.64 0 0 1 -.63-.64v-1.27h15.21zm0-2.53h-15.21v-13.95h15.21zm0-15.22h-15.21v-1.27a.63.63 0 0 1 .63-.63h14a.63.63 0 0 1 .63.63zm7.2 15.68a.63.63 0 0 1 -.11.55.62.62 0 0 1 -.5.25h-5.32v-1.26h5.8zm-5.93-1.73v-3.17h4.59l.86 3.17zm9.51-4.44h-9.51v-3.81h9.51zm0-6.34v1.27h-9.51v-5.71a1.9 1.9 0 0 0 -1.9-1.9h-5.07v-1.12h-1.27v1.12h-1.27v-1.12h-1.22v1.12h-1.32v-1.12h-1.26v1.12h-1.27v-9.51a1.91 1.91 0 0 1 1.9-1.91h27.95a1.91 1.91 0 0 1 1.9 1.91v14h-5.7a1.91 1.91 0 0 0 -1.96 1.85zm9.51 14.58a.64.64 0 0 1 -.63.64h-7a.64.64 0 0 1 -.64-.64v-1.27h8.24zm0-2.53h-8.24v-9.52h8.24zm0-10.78h-8.24v-1.27a.64.64 0 0 1 .64-.64h7a.64.64 0 0 1 .63.64z"/><path d="m9.26 31.97h3.59v1.27h-3.59z" transform="matrix(.70710678 -.70710678 .70710678 .70710678 -19.82 17.36)"/><path d="m10.74 31.34h10.76v1.27h-10.76z" transform="matrix(.70710678 -.70710678 .70710678 .70710678 -17.89 20.77)"/><path d="m12.8 27.54h5.38v1.27h-5.38z" transform="matrix(.70710678 -.70710678 .70710678 .70710678 -15.38 19.2)"/><path d="m35.76 31.66h4.48v1.27h-4.48z" transform="matrix(.70710678 -.70710678 .70710678 .70710678 -11.71 36.32)"/><path d="m37.02 34.2h4.48v1.27h-4.48z" transform="matrix(.70710678 -.70710678 .70710678 .70710678 -13.13 37.97)"/><path d="m22.31 16.12h5.38v1.27h-5.38z" transform="matrix(.70710678 -.70710678 .70710678 .70710678 -4.53 22.59)"/><path d="m28.02 14.86h5.38v1.27h-5.38z" transform="matrix(.70710678 -.70710678 .70710678 .70710678 -1.96 26.25)"/><path d="m24.47 19.29h3.59v1.27h-3.59z" transform="matrix(.70710678 -.70710678 .70710678 .70710678 -6.4 24.41)"/><path d="m27.64 11.69h3.6v1.27h-3.6z" transform="matrix(.70710678 -.70710678 .70710678 .70710678 -.09 24.42)"/></g></svg>